<?xml version="1.0" standalone="no"?>
<!DOCTYPE svg PUBLIC "-//W3C//DTD SVG 20010904//EN"
 "http://www.w3.org/TR/2001/REC-SVG-20010904/DTD/svg10.dtd">
<svg version="1.0" xmlns="http://www.w3.org/2000/svg"
 width="300.000000pt" height="210.000000pt" viewBox="0 0 300.000000 210.000000"
 preserveAspectRatio="xMidYMid meet">
<metadata>
Created by potrace 1.10, written by Peter Selinger 2001-2011
</metadata>
<g transform="translate(0.000000,210.000000) scale(0.100000,-0.100000)"
fill="#000000" stroke="none">
<path d="M931 1571 c-18 -18 -27 -55 -22 -85 1 -5 -1 -26 -4 -46 -5 -30 -12
-39 -39 -48 -18 -7 -42 -12 -54 -12 -28 0 -172 -68 -172 -80 0 -13 6 -13 39 4
39 21 182 56 225 56 l36 0 0 95 c0 135 5 135 149 -10 115 -115 119 -118 207
-150 49 -18 124 -46 167 -63 l77 -30 -1 66 c0 37 -4 104 -7 150 -8 91 -15 102
-69 102 -18 0 -33 5 -33 10 0 6 53 10 140 10 80 0 140 -4 140 -9 0 -6 -15 -11
-32 -13 -50 -5 -58 -31 -58 -199 l0 -146 58 -12 c31 -6 89 -14 127 -18 l70 -6
-3 179 c-3 198 -5 204 -69 204 -18 0 -33 5 -33 10 0 6 62 10 165 10 96 0 165
-4 165 -9 0 -6 -15 -11 -32 -13 -50 -5 -58 -31 -58 -201 l0 -148 23 7 c33 10
75 32 82 44 4 6 -2 7 -17 1 -48 -18 -55 -2 -57 126 -1 104 1 119 19 135 10 10
24 18 29 18 6 0 15 9 21 20 9 16 6 22 -15 36 -21 14 -48 16 -171 12 -128 -3
-148 -6 -159 -22 -12 -16 -12 -21 0 -32 7 -8 20 -14 29 -14 8 0 23 -11 34 -25
17 -22 20 -42 21 -146 1 -153 -4 -163 -72 -156 -128 13 -127 12 -127 162 0
110 2 124 21 146 12 13 25 23 29 22 11 -3 23 34 16 46 -14 22 -237 32 -275 12
-28 -15 -27 -48 2 -57 51 -15 62 -41 62 -144 l0 -95 -32 1 c-17 1 -44 8 -60
16 -15 7 -62 25 -103 38 -71 24 -79 30 -190 142 -124 126 -154 144 -189 109z"/>
<path d="M745 1303 c-72 -16 -95 -25 -90 -34 4 -5 10 -7 14 -5 4 3 49 8 99 11
142 9 135 20 130 -203 -3 -103 -8 -195 -12 -205 -5 -9 -19 -20 -32 -23 -30 -8
-41 -41 -20 -63 25 -24 256 -30 291 -7 34 22 32 51 -4 66 -56 23 -59 32 -64
207 -4 120 -2 165 7 172 16 14 56 2 56 -16 0 -11 7 -14 28 -9 15 3 21 3 14 -1
-18 -7 46 -44 173 -99 261 -112 415 -120 633 -35 121 47 165 70 137 71 -17 0
-17 2 -5 10 13 9 13 10 0 10 -9 0 -11 3 -5 8 6 4 19 18 30 32 l20 24 -30 -19
c-149 -94 -240 -131 -351 -142 -115 -11 -233 20 -459 122 -135 60 -285 119
-290 113 -9 -10 13 -426 24 -445 9 -18 21 -23 51 -23 26 0 40 -4 40 -13 0 -10
-32 -13 -145 -13 -111 0 -145 3 -145 13 0 8 13 13 34 13 18 0 38 6 44 13 6 7
13 110 18 245 l7 232 -89 -1 c-49 -1 -98 -3 -109 -6z"/>
<path d="M1303 995 c228 -223 281 -259 321 -219 16 16 19 28 18 101 -1 27 4
43 13 47 21 7 171 10 182 3 11 -7 10 -123 0 -133 -3 -3 -3 -12 -1 -19 9 -22
-16 -96 -41 -121 -13 -13 -22 -24 -20 -24 3 0 -12 -16 -33 -34 -31 -29 -35
-38 -26 -53 17 -27 63 -23 111 9 23 15 46 28 51 28 6 0 37 29 69 64 71 78 92
138 94 274 1 53 6 99 13 106 6 7 29 32 51 55 l40 44 -65 -41 -65 -41 -1 -103
c0 -146 -19 -202 -92 -276 -31 -33 -82 -73 -112 -90 -83 -48 -128 -41 -50 8
82 50 107 117 112 297 l3 102 -25 -7 c-14 -4 -73 -7 -133 -7 l-107 0 0 -87 c0
-88 -7 -106 -35 -90 -9 4 -91 81 -184 169 -161 155 -231 213 -255 213 -6 0 69
-79 167 -175z"/>
</g>
</svg>
